<svg width="1280" height="720" xmlns="http://www.w3.org/2000/svg" xmlns:xlink="http://www.w3.org/1999/xlink" overflow="hidden"><g><rect x="0" y="0" width="1280" height="720" fill="#FFFFFF"/><rect x="63" y="73" width="193" height="97" stroke="#042433" stroke-width="2" stroke-miterlimit="8" fill="#156082"/><text fill="#FFFFFF" font-family="Aptos,Aptos_MSFontService,sans-serif" font-weight="400" font-size="24" transform="translate(76.2998 114)">Program making</text><text fill="#FFFFFF" font-family="Aptos,Aptos_MSFontService,sans-serif" font-weight="400" font-size="24" transform="translate(111.4 143)">a request</text><rect x="448" y="73" width="192" height="97" stroke="#042433" stroke-width="2" stroke-miterlimit="8" fill="#156082"/><text fill="#FFFFFF" font-family="Aptos,Aptos_MSFontService,sans-serif" font-weight="400" font-size="24" transform="translate(502.83 129)">ZeroMQ</text><rect x="832" y="73" width="192" height="97" stroke="#042433" stroke-width="2" stroke-miterlimit="8" fill="#156082"/><text fill="#FFFFFF" font-family="Aptos,Aptos_MSFontService,sans-serif" font-weight="400" font-size="24" transform="translate(858.146 129)">timingservice</text><rect x="150" y="195" width="20" height="439" stroke="#042433" stroke-width="2" stroke-miterlimit="8" fill="#156082"/><rect x="918" y="195" width="20" height="439" stroke="#042433" stroke-width="2" stroke-miterlimit="8" fill="#156082"/><rect x="534" y="195" width="20" height="439" stroke="#042433" stroke-width="2" stroke-miterlimit="8" fill="#156082"/><path d="M170 263 527.739 263 527.739 265 170 265ZM526.405 260 534.405 264 526.405 268Z" fill="#156082"/><text font-family="Aptos,Aptos_MSFontService,sans-serif" font-weight="400" font-size="11" transform="translate(212.174 255)">p1 =</text><text font-family="Aptos,Aptos_MSFontService,sans-serif" font-weight="400" font-size="11" transform="translate(233.841 255)">zmq.Context</text><text font-family="Aptos,Aptos_MSFontService,sans-serif" font-weight="400" font-size="11" transform="translate(293.007 255)">().socket(</text><text font-family="Aptos,Aptos_MSFontService,sans-serif" font-weight="400" font-size="11" transform="translate(336.507 255)">zmq.REP</text><text font-family="Aptos,Aptos_MSFontService,sans-serif" font-weight="400" font-size="11" transform="translate(378.007 255)">); p1.bind(“</text><text font-family="Aptos,Aptos_MSFontService,sans-serif" font-weight="400" font-size="11" transform="translate(429.341 255)">tcp</text><text font-family="Aptos,Aptos_MSFontService,sans-serif" font-weight="400" font-size="11" transform="translate(444.507 255)">://*:port”);</text><path d="M170 306 527.228 306 527.228 308 170 308ZM525.895 303 533.895 307 525.895 311Z" fill="#156082"/><text font-family="Aptos,Aptos_MSFontService,sans-serif" font-weight="400" font-size="11" transform="translate(185.683 298)">p2 =</text><text font-family="Aptos,Aptos_MSFontService,sans-serif" font-weight="400" font-size="11" transform="translate(207.35 298)">zmq.Context</text><text font-family="Aptos,Aptos_MSFontService,sans-serif" font-weight="400" font-size="11" transform="translate(266.516 298)">().socket(</text><text font-family="Aptos,Aptos_MSFontService,sans-serif" font-weight="400" font-size="11" transform="translate(310.016 298)">zmq.REQ</text><text font-family="Aptos,Aptos_MSFontService,sans-serif" font-weight="400" font-size="11" transform="translate(353.183 298)">); p2.connect(“</text><text font-family="Aptos,Aptos_MSFontService,sans-serif" font-weight="400" font-size="11" transform="translate(422.183 298)">tcp</text><text font-family="Aptos,Aptos_MSFontService,sans-serif" font-weight="400" font-size="11" transform="translate(437.35 298)">://</text><text font-family="Aptos,Aptos_MSFontService,sans-serif" font-weight="400" font-size="11" transform="translate(447.683 298)">address:port</text><text font-family="Aptos,Aptos_MSFontService,sans-serif" font-weight="400" font-size="11" transform="translate(506.683 298)">”);</text><path d="M170 372 522.651 372 522.651 374 170 374ZM521.318 369 529.318 373 521.318 377Z" fill="#156082"/><text font-family="Aptos,Aptos_MSFontService,sans-serif" font-weight="400" font-size="11" transform="translate(193.677 365)">p2.send_json({“</text><text font-family="Aptos,Aptos_MSFontService,sans-serif" font-weight="400" font-size="11" transform="translate(266.344 365)">from”:”secret</text><text font-family="Aptos,Aptos_MSFontService,sans-serif" font-weight="400" font-size="11" transform="translate(329.844 365)">”, “type”:”</text><text font-family="Aptos,Aptos_MSFontService,sans-serif" font-weight="400" font-size="11" transform="translate(377.344 365)">callType</text><text font-family="Aptos,Aptos_MSFontService,sans-serif" font-weight="400" font-size="11" transform="translate(416.01 365)">”, “payload”:{data}})</text><path d="M2.97458e-07-1 8-0.999998 8 1-2.97458e-07 1ZM14-0.999996 22-0.999993 22 1.00001 14 1ZM28-0.999992 36-0.999989 36 1.00001 28 1.00001ZM42-0.999987 50-0.999985 50 1.00001 42 1.00001ZM56-0.999983 64-0.999981 64 1.00002 56 1.00002ZM70-0.999979 78-0.999977 78 1.00002 70 1.00002ZM84-0.999975 92-0.999973 92 1.00003 84 1.00003ZM98-0.999971 106-0.999968 106 1.00003 98 1.00003ZM112-0.999967 120-0.999964 120 1.00004 112 1.00003ZM126-0.999962 134-0.99996 134 1.00004 126 1.00004ZM140-0.999958 148-0.999956 148 1.00004 140 1.00004ZM154-0.999954 162-0.999952 162 1.00005 154 1.00005ZM168-0.99995 176-0.999948 176 1.00005 168 1.00005ZM182-0.999946 190-0.999943 190 1.00006 182 1.00005ZM196-0.999942 204-0.999939 204 1.00006 196 1.00006ZM210-0.999938 218-0.999935 218 1.00006 210 1.00006ZM224-0.999933 232-0.999931 232 1.00007 224 1.00007ZM238-0.999929 246-0.999927 246 1.00007 238 1.00007ZM252-0.999925 260-0.999923 260 1.00008 252 1.00007ZM266-0.999921 274-0.999918 274 1.00008 266 1.00008ZM280-0.999917 288-0.999914 288 1.00009 280 1.00008ZM294-0.999913 302-0.99991 302 1.00009 294 1.00009ZM308-0.999908 316-0.999906 316 1.00009 308 1.00009ZM322-0.999904 330-0.999902 330 1.0001 322 1.0001ZM336-0.9999 344-0.999898 344 1.0001 336 1.0001ZM344.947-3.9999 352.947 0.000104987 344.947 4.0001Z" fill="#156082" transform="matrix(-1 0 0 1 528.947 396)"/><text font-family="Aptos,Aptos_MSFontService,sans-serif" font-weight="400" font-size="11" transform="translate(309.067 388)">p2.recv_json()</text><path d="M0 0 65.2415 0.000104987" stroke="#156082" stroke-width="2" stroke-miterlimit="8" fill="none" fill-rule="evenodd" transform="matrix(-1 0 0 1 148.241 407)"/><path d="M0 0 0.000104987 45.3494" stroke="#156082" stroke-width="2" stroke-miterlimit="8" fill="none" fill-rule="evenodd" transform="matrix(1 0 0 -1 85 406.349)"/><path d="M85 359 143.575 359 143.575 361 85 361ZM142.241 356 150.241 360 142.241 364Z" fill="#156082"/><text font-family="Aptos,Aptos_MSFontService,sans-serif" font-weight="400" font-size="11" transform="translate(83.3561 352)">sendTimer</text><text font-family="Aptos,Aptos_MSFontService,sans-serif" font-weight="400" font-size="11" transform="translate(132.023 352)">()</text><path d="M2.97458e-07-1 346.28-0.999897 346.28 1.0001-2.97458e-07 1ZM344.947-3.9999 352.947 0.000104987 344.947 4.0001Z" fill="#156082" transform="matrix(-1 0 0 1 528.947 464)"/><text font-family="Aptos,Aptos_MSFontService,sans-serif" font-weight="400" font-size="11" transform="translate(309.067 453)">p1.recv_json()</text><path d="M170 488 178 488 178 490 170 490ZM184 488 192 488 192 490 184 490ZM198 488 206 488 206 490 198 490ZM212 488 220 488 220 490 212 490ZM226 488 234 488 234 490 226 490ZM240 488 248 488 248 490 240 490ZM254 488 262 488 262 490 254 490ZM268 488 276 488 276 490 268 490ZM282 488 290 488 290 490 282 490ZM296 488 304 488 304 490 296 490ZM310 488 318 488 318 490 310 490ZM324 488 332 488 332 490 324 490ZM338 488 346 488 346 490 338 490ZM352 488 360 488 360 490 352 490ZM366 488 374 488 374 490 366 490ZM380 488 388 488 388 490 380 490ZM394 488 402 488 402 490 394 490ZM408 488 416 488 416 490 408 490ZM422 488 430 488 430 490 422 490ZM436 488 444 488 444 490 436 490ZM450 488 458 488 458 490 450 490ZM464 488 472 488 472 490 464 490ZM478 488 486 488 486 490 478 490ZM492 488 500 488 500 490 492 490ZM506 488 514 488 514 490 506 490ZM520 488 522.651 488 522.651 490 520 490ZM521.318 485 529.318 489 521.318 493Z" fill="#156082"/><text font-family="Aptos,Aptos_MSFontService,sans-serif" font-weight="400" font-size="11" transform="translate(295.246 482)">p1.send_json({“</text><text font-family="Aptos,Aptos_MSFontService,sans-serif" font-weight="400" font-size="11" transform="translate(367.912 482)">id”:id</text><text font-family="Aptos,Aptos_MSFontService,sans-serif" font-weight="400" font-size="11" transform="translate(392.746 482)">})</text><path d="M0 0 68.8784 0.000104987" stroke="#156082" stroke-width="2" stroke-miterlimit="8" fill="none" fill-rule="evenodd" transform="matrix(-1 0 0 1 148.878 500)"/><path d="M0 0 0.000104987 45.3494" stroke="#156082" stroke-width="2" stroke-miterlimit="8" fill="none" fill-rule="evenodd" transform="matrix(1 0 0 -1 81 500.349)"/><path d="M81 453 139.575 453 139.575 455 81 455ZM138.241 450 146.241 454 138.241 458Z" fill="#156082"/><text font-family="Aptos,Aptos_MSFontService,sans-serif" font-weight="400" font-size="11" transform="translate(79.7192 445)">recvTimer</text><text font-family="Aptos,Aptos_MSFontService,sans-serif" font-weight="400" font-size="11" transform="translate(125.386 445)">()</text><path d="M0 0 101.134 0.000104987" stroke="#156082" stroke-width="2" stroke-miterlimit="8" fill="none" fill-rule="evenodd" transform="matrix(-1 0 0 1 146.134 550)"/><path d="M0 0 0.000104987 213.826" stroke="#156082" stroke-width="2" stroke-miterlimit="8" fill="none" fill-rule="evenodd" transform="matrix(1 0 0 -1 45 550.826)"/><path d="M45 336 143.104 336 143.104 338 45 338ZM141.771 333 149.771 337 141.771 341Z" fill="#156082"/><text font-family="Aptos,Aptos_MSFontService,sans-serif" font-weight="400" font-size="11" transform="translate(75.5192 330)">main()</text><path d="M2.88509e-07-1 357.228-0.999897 357.228 1.0001-2.88509e-07 1ZM355.895-3.9999 363.895 0.000104987 355.895 4.0001Z" fill="#156082" transform="matrix(-1 0 0 1 917.895 214)"/><text font-family="Aptos,Aptos_MSFontService,sans-serif" font-weight="400" font-size="11" transform="translate(595.061 206)">s1 =</text><text font-family="Aptos,Aptos_MSFontService,sans-serif" font-weight="400" font-size="11" transform="translate(615.894 206)">zmq.Context</text><text font-family="Aptos,Aptos_MSFontService,sans-serif" font-weight="400" font-size="11" transform="translate(675.061 206)">().socket(</text><text font-family="Aptos,Aptos_MSFontService,sans-serif" font-weight="400" font-size="11" transform="translate(718.561 206)">zmq.REP</text><text font-family="Aptos,Aptos_MSFontService,sans-serif" font-weight="400" font-size="11" transform="translate(760.061 206)">); s1.bind(“</text><text font-family="Aptos,Aptos_MSFontService,sans-serif" font-weight="400" font-size="11" transform="translate(810.561 206)">tcp</text><text font-family="Aptos,Aptos_MSFontService,sans-serif" font-weight="400" font-size="11" transform="translate(825.727 206)">://*:port”);</text><path d="M0.00229162-0.999997 357.23-0.181365 357.226 1.81863-0.00229162 0.999997ZM355.904-3.18441 363.895 0.833911 355.886 4.81557Z" fill="#156082" transform="matrix(1 0 0 -1 554 373.834)"/><text font-family="Aptos,Aptos_MSFontService,sans-serif" font-weight="400" font-size="11" transform="translate(693.712 366)">s1.recv_json()</text><path d="M2.88914e-07-1 8-0.999998 8 1-2.88914e-07 1ZM14-0.999996 22-0.999994 22 1.00001 14 1ZM28-0.999992 36-0.99999 36 1.00001 28 1.00001ZM42-0.999988 50-0.999986 50 1.00001 42 1.00001ZM56-0.999984 64-0.999982 64 1.00002 56 1.00002ZM70-0.99998 78-0.999977 78 1.00002 70 1.00002ZM84-0.999976 92-0.999973 92 1.00003 84 1.00002ZM98-0.999972 106-0.999969 106 1.00003 98 1.00003ZM112-0.999968 120-0.999965 120 1.00003 112 1.00003ZM126-0.999964 134-0.999961 134 1.00004 126 1.00004ZM140-0.999959 148-0.999957 148 1.00004 140 1.00004ZM154-0.999955 162-0.999953 162 1.00005 154 1.00004ZM168-0.999951 176-0.999949 176 1.00005 168 1.00005ZM182-0.999947 190-0.999945 190 1.00005 182 1.00005ZM196-0.999943 204-0.999941 204 1.00006 196 1.00006ZM210-0.999939 218-0.999937 218 1.00006 210 1.00006ZM224-0.999935 232-0.999933 232 1.00007 224 1.00006ZM238-0.999931 246-0.999929 246 1.00007 238 1.00007ZM252-0.999927 260-0.999925 260 1.00008 252 1.00007ZM266-0.999923 274-0.999921 274 1.00008 266 1.00008ZM280-0.999919 288-0.999917 288 1.00008 280 1.00008ZM294-0.999915 302-0.999913 302 1.00009 294 1.00008ZM308-0.999911 316-0.999909 316 1.00009 308 1.00009ZM322-0.999907 330-0.999905 330 1.0001 322 1.00009ZM336-0.999903 344-0.999901 344 1.0001 336 1.0001ZM350-0.999899 356.718-0.999897 356.718 1.0001 350 1.0001ZM355.384-3.9999 363.384 0.000104987 355.384 4.0001Z" fill="#156082" transform="matrix(-1 0 0 1 917.384 396)"/><text font-family="Aptos,Aptos_MSFontService,sans-serif" font-weight="400" font-size="11" transform="translate(570.208 391)">s1.send_json({“type”:”</text><text font-family="Aptos,Aptos_MSFontService,sans-serif" font-weight="400" font-size="11" transform="translate(674.708 391)">callType</text><text font-family="Aptos,Aptos_MSFontService,sans-serif" font-weight="400" font-size="11" transform="translate(713.375 391)">”,”payload”{“</text><text font-family="Aptos,Aptos_MSFontService,sans-serif" font-weight="400" font-size="11" transform="translate(775.708 391)">status”:”status</text><text font-family="Aptos,Aptos_MSFontService,sans-serif" font-weight="400" font-size="11" transform="translate(846.375 391)">”, “</text><text font-family="Aptos,Aptos_MSFontService,sans-serif" font-weight="400" font-size="11" transform="translate(861.208 391)">id”:id</text><text font-family="Aptos,Aptos_MSFontService,sans-serif" font-weight="400" font-size="11" transform="translate(888.208 391)">...}})</text><path d="M2.88509e-07-1 357.228-0.999897 357.228 1.0001-2.88509e-07 1ZM355.895-3.9999 363.895 0.000104987 355.895 4.0001Z" fill="#156082" transform="matrix(-1 0 0 1 916.895 465)"/><path d="M554 489 562 489 562 491 554 491ZM568 489 576 489 576 491 568 491ZM582 489 590 489 590 491 582 491ZM596 489 604 489 604 491 596 491ZM610 489 618 489 618 491 610 491ZM624 489 632 489 632 491 624 491ZM638 489 646 489 646 491 638 491ZM652 489 660 489 660 491 652 491ZM666 489 674 489 674 491 666 491ZM680 489 688 489 688 491 680 491ZM694 489 702 489 702 491 694 491ZM708 489 716 489 716 491 708 491ZM722 489 730 489 730 491 722 491ZM736 489 744 489 744 491 736 491ZM750 489 758 489 758 491 750 491ZM764 489 772 489 772 491 764 491ZM778 489 786 489 786 491 778 491ZM792 489 800 489 800 491 792 491ZM806 489 814 489 814 491 806 491ZM820 489 828 489 828 491 820 491ZM834 489 842 489 842 491 834 491ZM848 489 856 489 856 491 848 491ZM862 489 870 489 870 491 862 491ZM876 489 884 489 884 491 876 491ZM890 489 898 489 898 491 890 491ZM904 489 910.331 489 910.331 491 904 491ZM908.998 486 916.998 490 908.998 494Z" fill="#156082"/><text font-family="Aptos,Aptos_MSFontService,sans-serif" font-weight="400" font-size="11" transform="translate(566.927 457)">s2.connect(“</text><text font-family="Aptos,Aptos_MSFontService,sans-serif" font-weight="400" font-size="11" transform="translate(626.76 457)">tcp</text><text font-family="Aptos,Aptos_MSFontService,sans-serif" font-weight="400" font-size="11" transform="translate(641.927 457)">://</text><text font-family="Aptos,Aptos_MSFontService,sans-serif" font-weight="400" font-size="11" transform="translate(652.26 457)">address:port</text><text font-family="Aptos,Aptos_MSFontService,sans-serif" font-weight="400" font-size="11" transform="translate(711.26 457)">”); s2.send_json({“</text><text font-family="Aptos,Aptos_MSFontService,sans-serif" font-weight="400" font-size="11" transform="translate(796.26 457)">id”:id</text><text font-family="Aptos,Aptos_MSFontService,sans-serif" font-weight="400" font-size="11" transform="translate(821.093 457)">, “</text><text font-family="Aptos,Aptos_MSFontService,sans-serif" font-weight="400" font-size="11" transform="translate(831.093 457)">payload”:JSON</text><text font-family="Aptos,Aptos_MSFontService,sans-serif" font-weight="400" font-size="11" transform="translate(900.593 457)">});</text><text font-family="Aptos,Aptos_MSFontService,sans-serif" font-weight="400" font-size="11" transform="translate(692.637 486)">s2.recv_json()</text><path d="M938 512 1024.12 512" stroke="#156082" stroke-width="2" stroke-miterlimit="8" fill="none" fill-rule="evenodd"/><path d="M0 0 0.000104987 175.238" stroke="#156082" stroke-width="2" stroke-miterlimit="8" fill="none" fill-rule="evenodd" transform="matrix(1 0 0 -1 1024 512.238)"/><path d="M1.21911e-06-1 79.451-0.999903 79.451 1.0001-1.21911e-06 1ZM78.1177-3.9999 86.1177 0.000104987 78.1177 4.00009Z" fill="#156082" transform="matrix(-1 0 0 1 1024.12 337)"/><text font-family="Aptos,Aptos_MSFontService,sans-serif" font-weight="400" font-size="11" transform="translate(966.907 330)">main()</text></g></svg>